<svg width="206" height="45" viewBox="0 0 206 45" fill="none" xmlns="http://www.w3.org/2000/svg">
<path fill-rule="evenodd" clip-rule="evenodd" d="M0.0408694 16.7913C0.464547 22.5686 4.47768 27.1973 12.0803 30.6772C21.1988 20.5193 34.9739 10.2937 53.4055 0C40.7182 5.25532 28.4481 11.9174 16.5949 19.9867C12.4253 16.473 10.6889 13.6455 11.3857 11.5039C12.3565 8.63248 14.71 7.78027 18.4469 8.94744C16.0418 8.5961 14.7734 9.01741 14.6412 10.2113C14.5289 10.9891 14.9886 11.4569 15.4918 11.7932C16.3525 12.3685 17.4686 12.4438 19.2856 12.2591C20.9651 12.1007 22.3638 12.6429 23.4818 13.8858C24.0753 14.2038 24.3742 13.8939 24.3789 12.9562C25.3768 12.9938 26.0134 12.926 26.289 12.753C21.7345 9.9246 18.5317 7.65853 16.6811 5.95502C15.2049 4.88988 17.4069 4.02144 17.5 3.73932C10.6063 2.84002 6.2856 4.83316 4.67123 7.20424C1.26586 10.0439 -0.277672 13.2396 0.0408694 16.7913Z" fill="#E95258"/>
<path fill-rule="evenodd" clip-rule="evenodd" d="M51.2587 13.0037C40.944 15.1555 26.5517 24.0352 8.08203 39.6427C25.7361 20.1533 40.3975 9.46191 52.0687 7.57094C61.2434 6.42837 67.1856 9.33331 69.8953 16.2862C70.8359 21.9909 65.4727 28.1109 53.8051 34.6462C46.4982 38.9498 40.5561 42.3584 35.9785 44.8718C29.7131 42.2374 23.9253 39.0612 18.615 35.3432C32.2639 24.7646 41.5246 19.458 46.3968 19.4236C49.5211 18.9208 51.2478 19.9859 51.577 22.6189C51.4786 24.1728 50.5912 25.3928 48.9147 26.2795C49.1412 24.1259 48.2922 22.7315 46.3679 22.0961C43.3125 21.5538 41.3446 22.3671 40.4644 24.5362C38.8345 28.8629 37.4455 31.3904 36.297 32.1185C34.2007 33.1506 33.3229 34.0803 33.6636 34.9074C34.0939 36.0025 34.4895 36.6416 34.8502 36.8247C35.4211 36.0122 35.9516 35.5087 36.4418 35.3141C36.877 35.7025 36.4044 36.5836 35.0237 37.9578C35.6139 38.4982 36.3758 38.4593 37.3099 37.8415C46.6815 31.7668 52.7781 27.9322 55.5997 26.3374C56.4683 25.9309 57.4715 26.4054 58.6094 27.7609C58.8523 26.1391 59.026 24.1638 59.1301 21.835C61.42 17.6981 61.6128 14.9093 59.7088 13.4685C57.1212 12.2197 54.3044 12.0647 51.2587 13.0037Z" fill="#F9F9F9"/>
<path d="M96.45 31H101.25V14.65H107.1V10H90.6V14.65H96.45V31ZM118.495 31.3C123.895 31.3 127.345 27.85 127.345 22.3V10H122.545V22.3C122.545 24.85 120.745 26.65 118.495 26.65C116.245 26.65 114.445 24.85 114.445 22.3V10H109.645V22.3C109.645 27.85 113.095 31.3 118.495 31.3ZM131.387 31H145.637V26.35H136.187V10H131.387V31ZM148.174 31H152.974V24.7H157.924C161.974 24.7 164.824 21.85 164.824 17.35C164.824 12.85 161.974 10 157.924 10H148.174V31ZM152.974 20.05V14.65H157.624C158.974 14.65 160.024 15.7 160.024 17.35C160.024 19 158.974 20.05 157.624 20.05H152.974ZM163.942 31H169.192L170.542 26.8H178.642L179.992 31H185.242L178.042 10H171.142L163.942 31ZM171.892 22.6L174.292 15.1H174.892L177.292 22.6H171.892ZM187.198 31H191.998V24.25H192.598L198.598 31H204.598L198.148 23.95C198.148 23.95 203.998 23.65 203.998 17.2C203.998 12.85 201.148 10 197.098 10H187.198V31ZM191.998 19.9V14.5H196.798C198.148 14.5 199.198 15.55 199.198 17.2C199.198 18.85 198.148 19.9 196.798 19.9H191.998Z" fill="#F9F9F9"/>
</svg>
